<?xml version="1.0" encoding="UTF-8" standalone="no"?>
<!-- Generator: Adobe Illustrator 16.0.0, SVG Export Plug-In . SVG Version: 6.00 Build 0)  -->

<svg
   xmlns:dc="http://purl.org/dc/elements/1.1/"
   xmlns:cc="http://creativecommons.org/ns#"
   xmlns:rdf="http://www.w3.org/1999/02/22-rdf-syntax-ns#"
   xmlns:svg="http://www.w3.org/2000/svg"
   xmlns="http://www.w3.org/2000/svg"
   xmlns:sodipodi="http://sodipodi.sourceforge.net/DTD/sodipodi-0.dtd"
   xmlns:inkscape="http://www.inkscape.org/namespaces/inkscape"
   version="1.1"
   id="Capa_1"
   x="0px"
   y="0px"
   width="475.078px"
   height="475.077px"
   viewBox="0 0 475.078 475.077"
   style="enable-background:new 0 0 475.078 475.077;"
   xml:space="preserve"
   inkscape:version="0.91 r13725"
   sodipodi:docname="upload.svg"><metadata
     id="metadata45"><rdf:RDF><cc:Work
         rdf:about=""><dc:format>image/svg+xml</dc:format><dc:type
           rdf:resource="http://purl.org/dc/dcmitype/StillImage" /><dc:title></dc:title></cc:Work></rdf:RDF></metadata><defs
     id="defs43" /><sodipodi:namedview
     pagecolor="#ffffff"
     bordercolor="#666666"
     borderopacity="1"
     objecttolerance="10"
     gridtolerance="10"
     guidetolerance="10"
     inkscape:pageopacity="0"
     inkscape:pageshadow="2"
     inkscape:window-width="1280"
     inkscape:window-height="976"
     id="namedview41"
     showgrid="false"
     inkscape:zoom="0.49676158"
     inkscape:cx="237.539"
     inkscape:cy="237.5385"
     inkscape:window-x="-2"
     inkscape:window-y="25"
     inkscape:window-maximized="1"
     inkscape:current-layer="g4177" /><g
     id="g11" /><g
     id="g13" /><g
     id="g15" /><g
     id="g17" /><g
     id="g19" /><g
     id="g21" /><g
     id="g23" /><g
     id="g25" /><g
     id="g27" /><g
     id="g29" /><g
     id="g31" /><g
     id="g33" /><g
     id="g35" /><g
     id="g37" /><g
     id="g39" /><g
     id="g4177"
     transform="translate(-6.9614979,17.002288)"><path
       d="M 237.53906 126.79102 C 235.59058 126.79102 233.96457 127.47741 232.66406 128.84961 L 184.14062 177.37305 C 181.90154 179.53967 181.39615 182.03041 182.62305 184.84766 C 183.85185 187.73662 185.98169 189.17969 189.01367 189.17969 L 216.74219 189.17969 L 216.74219 237.70508 C 216.74219 239.58223 217.42934 241.20863 218.80078 242.58008 C 220.17299 243.95077 221.79705 244.63867 223.67383 244.63867 L 251.4043 244.63867 C 253.28146 244.63867 254.90596 243.95115 256.2793 242.58008 C 257.65037 241.20901 258.33594 239.58261 258.33594 237.70508 L 258.33594 189.17969 L 286.06445 189.17969 C 289.09832 189.17969 291.22931 187.7351 292.45508 184.84766 C 293.68312 182.03193 293.17544 179.53967 290.9375 177.37305 L 242.41211 128.84961 C 241.11122 127.47741 239.48943 126.79102 237.53906 126.79102 z M 157.82031 244.63867 C 154.93249 244.63867 152.47753 245.64943 150.45508 247.67188 C 148.433 249.69206 147.42188 252.14621 147.42188 255.03516 L 147.42188 289.69531 C 147.42188 292.58236 148.433 295.03992 150.45508 297.05859 C 152.47715 299.08028 154.93211 300.0918 157.82031 300.0918 L 317.25977 300.0918 C 320.14683 300.0918 322.60325 299.08028 324.62305 297.05859 C 326.64589 295.03727 327.65625 292.58236 327.65625 289.69531 L 327.65625 255.03516 C 327.65625 252.14621 326.64507 249.69472 324.62109 247.67188 C 322.60243 245.64943 320.14639 244.63867 317.25781 244.63867 L 271.00781 244.63867 C 269.49258 248.68168 266.94716 252.00245 263.37305 254.60156 C 259.79742 257.20104 255.80811 258.50195 251.4043 258.50195 L 223.67383 258.50195 C 219.26964 258.50195 215.28038 257.20067 211.70703 254.60156 C 208.13216 252.00245 205.58668 248.68206 204.07031 244.63867 L 157.82031 244.63867 z M 279.13086 272.36523 C 281.00839 272.36523 282.6337 273.05276 284.00781 274.42383 C 285.37849 275.79338 286.06445 277.41933 286.06445 279.29688 C 286.06445 281.1744 285.37849 282.8008 284.00781 284.17188 C 282.63408 285.54408 281.00839 286.23047 279.13086 286.23047 C 277.25332 286.23047 275.63115 285.54408 274.25781 284.17188 C 272.88674 282.80118 272.20117 281.1744 272.20117 279.29688 C 272.20117 277.41933 272.88674 275.79376 274.25781 274.42383 C 275.63115 273.05314 277.25332 272.36523 279.13086 272.36523 z M 306.85938 272.36523 C 308.7369 272.36523 310.36292 273.05276 311.73438 274.42383 C 313.10658 275.79338 313.79297 277.41933 313.79297 279.29688 C 313.79297 281.1744 313.10771 282.8008 311.73438 284.17188 C 310.36331 285.54408 308.73728 286.23047 306.85938 286.23047 C 304.98221 286.23047 303.35891 285.54408 301.98633 284.17188 C 300.61564 282.80118 299.92969 281.1744 299.92969 279.29688 C 299.92969 277.41933 300.61564 275.79376 301.98633 274.42383 C 303.35853 273.05314 304.98183 272.36523 306.85938 272.36523 z "
       transform="translate(6.9614979,-17.002288)"
       id="path7"
       style="opacity:0.975;fill:#000000;fill-opacity:0.18803419" /><text
       sodipodi:linespacing="125%"
       id="text4173"
       y="324.57474"
       x="127.28416"
       style="font-style:normal;font-variant:normal;font-weight:600;font-stretch:normal;font-size:27.93008423px;line-height:125%;font-family:'Open Sans';-inkscape-font-specification:'Open Sans Semi-Bold';letter-spacing:0px;word-spacing:0px;fill:#000000;fill-opacity:1;stroke:none;stroke-width:1px;stroke-linecap:butt;stroke-linejoin:miter;stroke-opacity:1"
       xml:space="preserve"><tspan
         y="324.57474"
         x="127.28416"
         id="tspan4175"
         sodipodi:role="line">Trascina qui il file</tspan></text>
</g></svg>